<svg viewBox="0 0 24 24" aria-hidden="true">
  <path d="M12 2c-2.9 0-5.25 2.35-5.25 5.25v3.3c0 .55-.35 1.05-.88 1.24l-1.22.44c-.8.3-1.15 1.24-.7 2.0.33.56 1 .83 1.63.66l.6-.16c.98-.26 2 .2 2.45 1.1C9.3 17.8 10.55 18.6 12 18.6s2.7-.8 3.17-1.96c.45-.9 1.47-1.36 2.45-1.1l.6.16c.63.17 1.3-.1 1.63-.66.45-.76.1-1.7-.7-2l-1.22-.44c-.53-.2-.88-.7-.88-1.24v-3.3C17.25 4.35 14.9 2 12 2zm0 18.2c-1.05 0-1.9.5-2.4.9-.5.4-1.4.25-1.7-.35-.2-.4-.6-.65-1.05-.66-.6-.02-1.1-.2-1.45-.5-.4-.34-.32-.98.15-1.2.9-.42 1.9-1.12 2.55-2.45.1-.2.3-.33.52-.33h2.1c.25 0 .47.18.5.43.07.55.6.97 1.23.97s1.16-.42 1.23-.97c.03-.25.25-.43.5-.43h2.1c.22 0 .42.13.52.33.65 1.33 1.65 2.03 2.55 2.45.47.22.55.86.15 1.2-.35.3-.85.48-1.45.5-.45.01-.85.26-1.05.66-.3.6-1.2.75-1.7.35-.5-.4-1.35-.9-2.4-.9z"/>
</svg>